# xmcd
#
# Track frame offsets: 
#        150
#        22225
#        118525
#        219063
#
# Disc length: 3755 seconds
#
# Revision: 1
# Processed by: cddbd v1.5.2PL0 Copyright (c) Steve Scherf et al.
# Submitted via: ExactAudioCopy v0.99pb5
#
DISCID=2e0ea904
DTITLE=Charles Mingus and Eric Dolphy - Complete Live in Amsterdam | CD1
DYEAR=2009
DGENRE=Jazz
TTITLE0=A.T.F.W.
TTITLE1=Pzrkeriana
TTITLE2=So long Eric
TTITLE3=Orange was the color of her dress
EXTD=YEAR: 2009
EXTT0=
EXTT1=
EXTT2=
EXTT3=
PLAYORDER=
